# xmcd
#
# Track frame offsets:
#	150
#	17910
#	34441
#	46962
#	60385
#	79326
#	94918
#	107954
#	121673
#	136063
#	149469
#	163062
#	178532
#	195475
#	212499
#	228984
#	244641
#	273535
#
# Disc length: 3662 seconds
#
# Revision: 1
# Processed by: cddbd v1.5.2PL0 Copyright (c) Steve Scherf et al.
# Submitted via: audiograbber 1.83.01
#
DISCID=fa0e4c12
DTITLE=Chartbusters - Country 500 vol.1 d.2
DYEAR=1900
DGENRE=karaoke
TTITLE0=Joe Diffe - Prop Me Up Beside the Jukebox (If I Die)
TTITLE1=Little Texas - God blessed Texas
TTITLE2=Trisha Yearwood - That's What I Like About You
TTITLE3=Clay Walker - Live until I die
TTITLE4=Wynonna - No one else on earth
TTITLE5=Confererate Railroad - Trashy Women
TTITLE6=Faith Hill - Wild one
TTITLE7=Mark Chesnutt - It Sure Is Monday
TTITLE8=Sammy Kershaw - She Don't Know She's Beautiful
TTITLE9=Lorrie Morgan - What part of no
TTITLE10=Sawyer Brown - Thank God for You
TTITLE11=Pam Tillis - Cleopatra, Queen of Denial
TTITLE12=Toby Keith - Should've Been a Cowboy
TTITLE13=Patty Loveless - Blame It on Your Heart
TTITLE14=Brooks and Dunn - Rock My World (Little Country Girl)
TTITLE15=Reba McIntire - Take it back
TTITLE16=Tony Joe White - Polk Salad Annie
TTITLE17=Data - Track
EXTD=
EXTT0=
EXTT1=
EXTT2=
EXTT3=
EXTT4=
EXTT5=
EXTT6=
EXTT7=
EXTT8=
EXTT9=
EXTT10=
EXTT11=
EXTT12=
EXTT13=
EXTT14=
EXTT15=
EXTT16=
EXTT17=
PLAYORDER=
